<mxfile host="Electron" agent="Mozilla/5.0 (Windows NT 10.0; Win64; x64) AppleWebKit/537.36 (KHTML, like Gecko) draw.io/24.7.17 Chrome/128.0.6613.36 Electron/32.0.1 Safari/537.36" version="24.7.17">
  <diagram name="Page-1" id="1oNJ7njzPxzll-vvgYID">
    <mxGraphModel dx="951" dy="404" grid="1" gridSize="10" guides="1" tooltips="1" connect="1" arrows="1" fold="1" page="1" pageScale="1" pageWidth="1400" pageHeight="850" math="0" shadow="0">
      <root>
        <mxCell id="0" />
        <mxCell id="1" parent="0" />
        <mxCell id="iOw2Lqcm3NnSTYUkeEW9-10" value="&lt;h2 style=&quot;line-height: 100%;&quot;&gt;&lt;font color=&quot;#ffffff&quot;&gt;User&lt;/font&gt;&lt;/h2&gt;" style="rounded=0;whiteSpace=wrap;html=1;fillColor=#36A879;strokeColor=#FFFFFF;" vertex="1" parent="1">
          <mxGeometry x="949" y="280" width="120" height="60" as="geometry" />
        </mxCell>
        <mxCell id="iOw2Lqcm3NnSTYUkeEW9-11" value="&lt;h2 style=&quot;line-height: 100%;&quot;&gt;&lt;font color=&quot;#ffffff&quot;&gt;Doctor&lt;/font&gt;&lt;/h2&gt;" style="rounded=0;whiteSpace=wrap;html=1;fillColor=#36A879;strokeColor=#FFFFFF;" vertex="1" parent="1">
          <mxGeometry x="609" y="480" width="120" height="60" as="geometry" />
        </mxCell>
        <mxCell id="iOw2Lqcm3NnSTYUkeEW9-30" style="edgeStyle=none;shape=flexArrow;rounded=0;orthogonalLoop=1;jettySize=auto;html=1;entryX=0;entryY=0.5;entryDx=0;entryDy=0;fillColor=#dae8fc;strokeColor=#6c8ebf;" edge="1" parent="1" source="iOw2Lqcm3NnSTYUkeEW9-13" target="iOw2Lqcm3NnSTYUkeEW9-12">
          <mxGeometry relative="1" as="geometry" />
        </mxCell>
        <mxCell id="iOw2Lqcm3NnSTYUkeEW9-13" value="&lt;h2 style=&quot;line-height: 100%;&quot;&gt;&lt;font color=&quot;#ffffff&quot;&gt;Drug&lt;/font&gt;&lt;/h2&gt;" style="rounded=0;whiteSpace=wrap;html=1;fillColor=#36A879;strokeColor=#FFFFFF;" vertex="1" parent="1">
          <mxGeometry x="289" y="280" width="120" height="60" as="geometry" />
        </mxCell>
        <mxCell id="iOw2Lqcm3NnSTYUkeEW9-26" style="edgeStyle=none;shape=flexArrow;rounded=0;orthogonalLoop=1;jettySize=auto;html=1;exitX=0;exitY=0;exitDx=0;exitDy=0;entryX=1;entryY=1;entryDx=0;entryDy=0;fillColor=#dae8fc;strokeColor=#6c8ebf;" edge="1" parent="1" source="iOw2Lqcm3NnSTYUkeEW9-17" target="iOw2Lqcm3NnSTYUkeEW9-12">
          <mxGeometry relative="1" as="geometry" />
        </mxCell>
        <mxCell id="iOw2Lqcm3NnSTYUkeEW9-27" style="edgeStyle=none;shape=flexArrow;rounded=0;orthogonalLoop=1;jettySize=auto;html=1;entryX=0.5;entryY=1;entryDx=0;entryDy=0;fillColor=#dae8fc;strokeColor=#6c8ebf;" edge="1" parent="1" source="iOw2Lqcm3NnSTYUkeEW9-17" target="iOw2Lqcm3NnSTYUkeEW9-10">
          <mxGeometry relative="1" as="geometry" />
        </mxCell>
        <mxCell id="iOw2Lqcm3NnSTYUkeEW9-29" style="edgeStyle=none;shape=flexArrow;rounded=0;orthogonalLoop=1;jettySize=auto;html=1;exitX=0;exitY=0.5;exitDx=0;exitDy=0;entryX=1;entryY=0.5;entryDx=0;entryDy=0;fillColor=#dae8fc;strokeColor=#6c8ebf;" edge="1" parent="1" source="iOw2Lqcm3NnSTYUkeEW9-17" target="iOw2Lqcm3NnSTYUkeEW9-11">
          <mxGeometry relative="1" as="geometry" />
        </mxCell>
        <mxCell id="iOw2Lqcm3NnSTYUkeEW9-17" value="&lt;h2 style=&quot;line-height: 100%;&quot;&gt;&lt;font color=&quot;#ffffff&quot;&gt;Review&lt;/font&gt;&lt;/h2&gt;" style="rounded=0;whiteSpace=wrap;html=1;fillColor=#36A879;strokeColor=#FFFFFF;" vertex="1" parent="1">
          <mxGeometry x="949" y="480" width="120" height="60" as="geometry" />
        </mxCell>
        <mxCell id="iOw2Lqcm3NnSTYUkeEW9-25" style="edgeStyle=none;shape=flexArrow;rounded=0;orthogonalLoop=1;jettySize=auto;html=1;exitX=1;exitY=0.5;exitDx=0;exitDy=0;entryX=0;entryY=0.509;entryDx=0;entryDy=0;entryPerimeter=0;fillColor=#dae8fc;strokeColor=#6c8ebf;" edge="1" parent="1" source="iOw2Lqcm3NnSTYUkeEW9-12" target="iOw2Lqcm3NnSTYUkeEW9-10">
          <mxGeometry relative="1" as="geometry">
            <mxPoint x="939" y="310.53846153846143" as="targetPoint" />
          </mxGeometry>
        </mxCell>
        <mxCell id="iOw2Lqcm3NnSTYUkeEW9-28" style="edgeStyle=none;shape=flexArrow;rounded=0;orthogonalLoop=1;jettySize=auto;html=1;entryX=0.5;entryY=0;entryDx=0;entryDy=0;fillColor=#dae8fc;strokeColor=#6c8ebf;" edge="1" parent="1" source="iOw2Lqcm3NnSTYUkeEW9-12" target="iOw2Lqcm3NnSTYUkeEW9-11">
          <mxGeometry relative="1" as="geometry" />
        </mxCell>
        <mxCell id="iOw2Lqcm3NnSTYUkeEW9-12" value="&lt;h2 style=&quot;line-height: 100%;&quot;&gt;&lt;font color=&quot;#ffffff&quot;&gt;Visit&lt;/font&gt;&lt;/h2&gt;" style="rounded=0;whiteSpace=wrap;html=1;fillColor=#36A879;strokeColor=#FFFFFF;" vertex="1" parent="1">
          <mxGeometry x="609" y="280" width="120" height="60" as="geometry" />
        </mxCell>
        <mxCell id="iOw2Lqcm3NnSTYUkeEW9-32" value="&lt;font style=&quot;font-size: 14px;&quot;&gt;1:Many&lt;/font&gt;&lt;div style=&quot;font-size: 14px;&quot;&gt;&lt;font style=&quot;font-size: 14px;&quot;&gt;Parent referencing&lt;/font&gt;&lt;/div&gt;" style="text;strokeColor=none;align=center;fillColor=none;html=1;verticalAlign=middle;whiteSpace=wrap;rounded=0;" vertex="1" parent="1">
          <mxGeometry x="770" y="260" width="130" height="30" as="geometry" />
        </mxCell>
        <mxCell id="iOw2Lqcm3NnSTYUkeEW9-33" value="&lt;font style=&quot;font-size: 14px;&quot;&gt;1:Many&lt;/font&gt;&lt;div style=&quot;font-size: 14px;&quot;&gt;&lt;font style=&quot;font-size: 14px;&quot;&gt;Parent referencing&lt;/font&gt;&lt;/div&gt;" style="text;strokeColor=none;align=center;fillColor=none;html=1;verticalAlign=middle;whiteSpace=wrap;rounded=0;" vertex="1" parent="1">
          <mxGeometry x="530" y="390" width="130" height="30" as="geometry" />
        </mxCell>
        <mxCell id="iOw2Lqcm3NnSTYUkeEW9-34" value="&lt;span style=&quot;font-size: 14px;&quot;&gt;Embedding&lt;/span&gt;" style="text;strokeColor=none;align=center;fillColor=none;html=1;verticalAlign=middle;whiteSpace=wrap;rounded=0;" vertex="1" parent="1">
          <mxGeometry x="440" y="270" width="130" height="30" as="geometry" />
        </mxCell>
        <mxCell id="iOw2Lqcm3NnSTYUkeEW9-35" value="&lt;font style=&quot;font-size: 14px;&quot;&gt;1:Many&lt;/font&gt;&lt;div style=&quot;font-size: 14px;&quot;&gt;&lt;font style=&quot;font-size: 14px;&quot;&gt;Parent referencing&lt;/font&gt;&lt;/div&gt;" style="text;strokeColor=none;align=center;fillColor=none;html=1;verticalAlign=middle;whiteSpace=wrap;rounded=0;" vertex="1" parent="1">
          <mxGeometry x="770" y="530" width="130" height="30" as="geometry" />
        </mxCell>
        <mxCell id="iOw2Lqcm3NnSTYUkeEW9-36" value="&lt;font style=&quot;font-size: 14px;&quot;&gt;1:Many&lt;/font&gt;&lt;div style=&quot;font-size: 14px;&quot;&gt;&lt;font style=&quot;font-size: 14px;&quot;&gt;Parent referencing&lt;/font&gt;&lt;/div&gt;" style="text;strokeColor=none;align=center;fillColor=none;html=1;verticalAlign=middle;whiteSpace=wrap;rounded=0;" vertex="1" parent="1">
          <mxGeometry x="1020" y="390" width="130" height="30" as="geometry" />
        </mxCell>
        <mxCell id="iOw2Lqcm3NnSTYUkeEW9-37" value="&lt;font style=&quot;font-size: 14px;&quot;&gt;1:1&lt;/font&gt;&lt;div style=&quot;font-size: 14px;&quot;&gt;&lt;font style=&quot;font-size: 14px;&quot;&gt;Parent referencing&lt;/font&gt;&lt;/div&gt;" style="text;strokeColor=none;align=center;fillColor=none;html=1;verticalAlign=middle;whiteSpace=wrap;rounded=0;" vertex="1" parent="1">
          <mxGeometry x="747" y="421" width="130" height="30" as="geometry" />
        </mxCell>
        <mxCell id="iOw2Lqcm3NnSTYUkeEW9-40" value="P" style="text;strokeColor=#82b366;align=center;fillColor=#d5e8d4;html=1;verticalAlign=middle;whiteSpace=wrap;rounded=1;glass=0;arcSize=50;shadow=0;movable=1;resizable=1;rotatable=1;deletable=1;editable=1;locked=0;connectable=1;" vertex="1" parent="1">
          <mxGeometry x="630" y="461" width="20" height="19" as="geometry" />
        </mxCell>
        <mxCell id="iOw2Lqcm3NnSTYUkeEW9-43" value="C" style="text;strokeColor=#82b366;align=center;fillColor=#d5e8d4;html=1;verticalAlign=middle;whiteSpace=wrap;rounded=1;glass=0;arcSize=50;shadow=0;movable=1;resizable=1;rotatable=1;deletable=1;editable=1;locked=0;connectable=1;" vertex="1" parent="1">
          <mxGeometry x="630" y="340" width="20" height="19" as="geometry" />
        </mxCell>
        <mxCell id="iOw2Lqcm3NnSTYUkeEW9-44" value="C" style="text;strokeColor=#82b366;align=center;fillColor=#d5e8d4;html=1;verticalAlign=middle;whiteSpace=wrap;rounded=1;glass=0;arcSize=50;shadow=0;movable=1;resizable=1;rotatable=1;deletable=1;editable=1;locked=0;connectable=1;" vertex="1" parent="1">
          <mxGeometry x="1030" y="461" width="20" height="19" as="geometry" />
        </mxCell>
        <mxCell id="iOw2Lqcm3NnSTYUkeEW9-45" value="C" style="text;strokeColor=#82b366;align=center;fillColor=#d5e8d4;html=1;verticalAlign=middle;whiteSpace=wrap;rounded=1;glass=0;arcSize=50;shadow=0;movable=1;resizable=1;rotatable=1;deletable=1;editable=1;locked=0;connectable=1;" vertex="1" parent="1">
          <mxGeometry x="941" y="447" width="20" height="19" as="geometry" />
        </mxCell>
        <mxCell id="iOw2Lqcm3NnSTYUkeEW9-46" value="C" style="text;strokeColor=#82b366;align=center;fillColor=#d5e8d4;html=1;verticalAlign=middle;whiteSpace=wrap;rounded=1;glass=0;arcSize=50;shadow=0;movable=1;resizable=1;rotatable=1;deletable=1;editable=1;locked=0;connectable=1;" vertex="1" parent="1">
          <mxGeometry x="929" y="530" width="20" height="19" as="geometry" />
        </mxCell>
        <mxCell id="iOw2Lqcm3NnSTYUkeEW9-49" value="C" style="text;strokeColor=#82b366;align=center;fillColor=#d5e8d4;html=1;verticalAlign=middle;whiteSpace=wrap;rounded=1;glass=0;arcSize=50;shadow=0;movable=1;resizable=1;rotatable=1;deletable=1;editable=1;locked=0;connectable=1;" vertex="1" parent="1">
          <mxGeometry x="729" y="271" width="20" height="19" as="geometry" />
        </mxCell>
        <mxCell id="iOw2Lqcm3NnSTYUkeEW9-51" value="P" style="text;strokeColor=#82b366;align=center;fillColor=#d5e8d4;html=1;verticalAlign=middle;whiteSpace=wrap;rounded=1;glass=0;arcSize=50;shadow=0;movable=1;resizable=1;rotatable=1;deletable=1;editable=1;locked=0;connectable=1;" vertex="1" parent="1">
          <mxGeometry x="760" y="330" width="20" height="19" as="geometry" />
        </mxCell>
        <mxCell id="iOw2Lqcm3NnSTYUkeEW9-52" value="P" style="text;strokeColor=#82b366;align=center;fillColor=#d5e8d4;html=1;verticalAlign=middle;whiteSpace=wrap;rounded=1;glass=0;arcSize=50;shadow=0;movable=1;resizable=1;rotatable=1;deletable=1;editable=1;locked=0;connectable=1;" vertex="1" parent="1">
          <mxGeometry x="929" y="271" width="20" height="19" as="geometry" />
        </mxCell>
        <mxCell id="iOw2Lqcm3NnSTYUkeEW9-53" value="P" style="text;strokeColor=#82b366;align=center;fillColor=#d5e8d4;html=1;verticalAlign=middle;whiteSpace=wrap;rounded=1;glass=0;arcSize=50;shadow=0;movable=1;resizable=1;rotatable=1;deletable=1;editable=1;locked=0;connectable=1;" vertex="1" parent="1">
          <mxGeometry x="1030" y="340" width="20" height="19" as="geometry" />
        </mxCell>
        <mxCell id="iOw2Lqcm3NnSTYUkeEW9-54" value="P" style="text;strokeColor=#82b366;align=center;fillColor=#d5e8d4;html=1;verticalAlign=middle;whiteSpace=wrap;rounded=1;glass=0;arcSize=50;shadow=0;movable=1;resizable=1;rotatable=1;deletable=1;editable=1;locked=0;connectable=1;" vertex="1" parent="1">
          <mxGeometry x="729" y="530" width="20" height="19" as="geometry" />
        </mxCell>
      </root>
    </mxGraphModel>
  </diagram>
</mxfile>
